<svg xmlns="http://www.w3.org/2000/svg" width="168" height="48" viewBox="0 0 168 48" fill="none"><path d="M8.9281 37.0566C8.7361 37.1526 8.5441 37.1526 8.2561 37.1526C8.4481 37.1526 8.7361 37.1526 8.9281 37.0566Z" fill="#5EDD5B"></path><path d="M11.4241 13.2483C11.3281 13.1523 11.3281 12.9603 11.2321 12.8643C11.3281 12.9603 11.4241 13.0563 11.4241 13.2483Z" fill="#5EDD5B"></path><path d="M39.2641 37.1523H39.6481C39.5521 37.1523 39.4561 37.1523 39.2641 37.1523ZM11.2321 12.8643C11.3281 12.9603 11.3281 13.1523 11.4241 13.2483C11.4241 13.0563 11.3281 12.9603 11.2321 12.8643Z" fill="#5EDD5B"></path><path d="M42.816 12.4801C42.144 11.4241 40.896 10.8481 39.744 10.8481C36 6.33605 30.336 3.45605 24 3.45605C17.664 3.45605 12 6.33605 8.25604 10.8481C7.00804 10.8481 5.85604 11.4241 5.18404 12.4801C3.07204 15.9361 1.92004 19.9681 1.92004 24.0001C1.92004 28.0321 3.07204 32.0641 5.18404 35.5201C5.85604 36.5761 7.00804 37.1521 8.06404 37.1521H8.16004C10.944 40.4161 14.592 42.8161 18.912 43.8721C20.544 44.2561 22.176 44.4481 23.904 44.4481C25.632 44.4481 27.264 44.2561 28.896 43.8721C33.12 42.8161 36.864 40.4161 39.648 37.1521H39.84C40.992 37.1521 42.144 36.5761 42.72 35.5201C44.928 32.0641 45.9841 28.0321 45.9841 24.0001C46.0801 19.9681 44.928 15.9361 42.816 12.4801ZM11.04 16.1281C11.616 15.2641 11.712 14.2081 11.424 13.2481C11.424 13.1521 11.328 12.9601 11.232 12.8641C11.328 12.9601 11.328 13.1521 11.424 13.2481C14.496 9.69605 19.008 7.48805 24 7.48805C29.088 7.48805 33.504 9.69605 36.576 13.2481C36.288 14.2081 36.384 15.2641 36.96 16.1281C37.92 17.6641 38.592 19.2961 38.88 21.0241C34.368 19.0081 29.28 17.8561 24 17.8561C18.72 17.8561 13.632 19.0081 9.12004 21.0241C9.50404 19.2961 10.08 17.5681 11.04 16.1281ZM21.024 40.3201C16.992 39.5521 14.112 37.7281 11.424 34.7521C11.712 33.7921 11.616 32.7361 11.04 31.8721C9.98405 30.2401 9.31204 28.3201 9.02404 26.4961C9.12004 26.4961 9.31205 26.4001 9.40804 26.4001H9.50404C9.69604 26.4001 9.88805 26.3041 10.176 26.3041H11.04C16.896 26.3041 21.696 31.0081 21.696 36.8641C21.6 38.1121 21.408 39.2641 21.024 40.3201ZM24 28.0321C22.176 28.0321 20.736 26.5921 20.736 24.7681C20.736 22.9441 22.176 21.5041 24 21.5041C25.824 21.5041 27.264 22.9441 27.264 24.7681C27.264 26.5921 25.824 28.0321 24 28.0321ZM36.96 31.9681C36.384 32.8321 36.288 33.8881 36.576 34.8481C34.176 37.6321 30.72 39.6481 26.88 40.3201C26.496 39.2641 26.304 38.1121 26.304 36.9601C26.304 31.1041 31.008 26.4001 36.864 26.4001C37.536 26.4001 38.208 26.4961 38.88 26.5921C38.688 28.4161 37.92 30.2401 36.96 31.9681Z" fill="#5EDD5B"></path><path d="M63.288 35.416C61.7733 35.416 60.3493 35.1173 59.016 34.52C57.6827 33.912 56.5093 33.0747 55.496 32.008C54.4933 30.9413 53.704 29.7093 53.128 28.312C52.5627 26.904 52.28 25.4 52.28 23.8C52.28 22.1893 52.5627 20.6853 53.128 19.288C53.704 17.88 54.4933 16.648 55.496 15.592C56.5093 14.5253 57.6827 13.6933 59.016 13.096C60.3493 12.488 61.7733 12.184 63.288 12.184C65.1013 12.184 66.7707 12.6053 68.296 13.448C69.8213 14.28 71.0853 15.3947 72.088 16.792L68.152 18.92C67.5547 18.216 66.8347 17.656 65.992 17.24C65.1493 16.8133 64.248 16.6 63.288 16.6C62.3813 16.6 61.528 16.7867 60.728 17.16C59.928 17.5333 59.224 18.0507 58.616 18.712C58.0187 19.3733 57.5493 20.136 57.208 21C56.8667 21.864 56.696 22.7973 56.696 23.8C56.696 24.792 56.8667 25.7253 57.208 26.6C57.5493 27.464 58.0187 28.2267 58.616 28.888C59.224 29.5387 59.928 30.056 60.728 30.44C61.528 30.8133 62.3813 31 63.288 31C64.2587 31 65.16 30.7867 65.992 30.36C66.8347 29.9333 67.5547 29.368 68.152 28.664L72.088 30.808C71.0853 32.1947 69.8213 33.3093 68.296 34.152C66.7707 34.9947 65.1013 35.416 63.288 35.416ZM85.9453 19H90.3612V35H85.9293L85.7213 33.336C85.3053 33.9547 84.7719 34.456 84.1213 34.84C83.4706 35.224 82.7079 35.416 81.8333 35.416C80.6386 35.416 79.5239 35.192 78.4893 34.744C77.4546 34.296 76.5426 33.6773 75.7533 32.888C74.9639 32.0987 74.3453 31.1867 73.8973 30.152C73.4599 29.1067 73.2413 27.9867 73.2413 26.792C73.2413 25.6507 73.4493 24.584 73.8653 23.592C74.2813 22.6 74.8679 21.7253 75.6253 20.968C76.3826 20.2107 77.2519 19.6187 78.2333 19.192C79.2253 18.7653 80.2919 18.552 81.4333 18.552C82.4146 18.552 83.2946 18.76 84.0733 19.176C84.8626 19.592 85.5506 20.12 86.1373 20.76L85.9453 19ZM81.7213 31.176C82.4466 31.176 83.1026 30.9893 83.6893 30.616C84.2759 30.2427 84.7399 29.7413 85.0813 29.112C85.4226 28.472 85.5933 27.768 85.5933 27C85.5933 26.2213 85.4226 25.5173 85.0813 24.888C84.7399 24.2587 84.2759 23.7573 83.6893 23.384C83.1026 23.0107 82.4466 22.824 81.7213 22.824C80.9853 22.824 80.3186 23.0107 79.7213 23.384C79.1239 23.7573 78.6493 24.264 78.2973 24.904C77.9453 25.5333 77.7693 26.232 77.7693 27C77.7693 27.768 77.9453 28.472 78.2973 29.112C78.6599 29.7413 79.1399 30.2427 79.7373 30.616C80.3346 30.9893 80.9959 31.176 81.7213 31.176ZM93.5923 35L93.5763 19H97.9923L98.0083 20.184C98.5416 19.672 99.1656 19.272 99.8802 18.984C100.606 18.696 101.368 18.552 102.168 18.552C102.755 18.552 103.342 18.6373 103.928 18.808L102.184 23.272C101.8 23.112 101.411 23.032 101.016 23.032C100.462 23.032 99.9549 23.1653 99.4963 23.432C99.0376 23.6987 98.6749 24.0613 98.4083 24.52C98.1416 24.968 98.0083 25.4747 98.0083 26.04V35H93.5923ZM111.96 35.416C110.488 35.416 109.144 35.0373 107.928 34.28C106.723 33.5227 105.757 32.504 105.032 31.224C104.317 29.944 103.96 28.5307 103.96 26.984C103.96 25.8213 104.168 24.7333 104.584 23.72C105 22.696 105.571 21.8 106.296 21.032C107.032 20.2533 107.885 19.6453 108.856 19.208C109.827 18.7707 110.861 18.552 111.96 18.552C113.229 18.552 114.387 18.824 115.432 19.368C116.488 19.912 117.379 20.6533 118.104 21.592C118.84 22.5307 119.363 23.592 119.672 24.776C119.992 25.96 120.045 27.192 119.832 28.472H108.728C108.867 28.9413 109.08 29.368 109.368 29.752C109.667 30.1253 110.029 30.424 110.456 30.648C110.893 30.872 111.395 30.9893 111.96 31C112.515 31.0107 113.027 30.8827 113.496 30.616C113.965 30.3493 114.365 29.992 114.696 29.544L119.208 30.584C118.557 32.0027 117.587 33.1653 116.296 34.072C115.005 34.968 113.56 35.416 111.96 35.416ZM108.568 25.208H115.368C115.229 24.6747 114.995 24.1947 114.664 23.768C114.333 23.3413 113.933 23.0053 113.464 22.76C113.005 22.5147 112.504 22.392 111.96 22.392C111.427 22.392 110.925 22.5147 110.456 22.76C109.997 23.0053 109.603 23.3413 109.272 23.768C108.952 24.184 108.717 24.664 108.568 25.208ZM137.253 24.824V35H132.837V26.04C132.837 25.4747 132.698 24.968 132.421 24.52C132.154 24.0613 131.791 23.6987 131.333 23.432C130.885 23.1653 130.383 23.032 129.829 23.032C129.274 23.032 128.767 23.1653 128.309 23.432C127.85 23.6987 127.487 24.0613 127.221 24.52C126.954 24.968 126.821 25.4747 126.821 26.04V35H122.405L122.389 19H126.805L126.821 20.184C127.354 19.672 127.978 19.272 128.693 18.984C129.418 18.696 130.181 18.552 130.981 18.552C132.143 18.552 133.194 18.8347 134.133 19.4C135.082 19.9653 135.839 20.7227 136.405 21.672C136.97 22.6107 137.253 23.6613 137.253 24.824ZM149.155 23.416H146.275V35H141.859V23.416H139.651V19H141.859V13.976H146.275V19H149.155V23.416ZM158.741 35.416C157.269 35.416 155.925 35.0373 154.709 34.28C153.504 33.5227 152.539 32.5093 151.813 31.24C151.099 29.96 150.741 28.5467 150.741 27C150.741 25.8267 150.949 24.7333 151.365 23.72C151.781 22.696 152.352 21.8 153.077 21.032C153.813 20.2533 154.667 19.6453 155.637 19.208C156.608 18.7707 157.643 18.552 158.741 18.552C160.213 18.552 161.552 18.9307 162.757 19.688C163.973 20.4453 164.939 21.464 165.653 22.744C166.379 24.024 166.741 25.4427 166.741 27C166.741 28.1627 166.533 29.2507 166.117 30.264C165.701 31.2773 165.125 32.1733 164.389 32.952C163.664 33.72 162.816 34.3227 161.845 34.76C160.885 35.1973 159.851 35.416 158.741 35.416ZM158.741 31C159.424 31 160.037 30.8187 160.581 30.456C161.125 30.0827 161.552 29.592 161.861 28.984C162.171 28.376 162.325 27.7147 162.325 27C162.325 26.264 162.16 25.592 161.829 24.984C161.509 24.3653 161.077 23.8747 160.533 23.512C159.989 23.1493 159.392 22.968 158.741 22.968C158.069 22.968 157.461 23.1547 156.917 23.528C156.373 23.9013 155.941 24.392 155.621 25C155.312 25.608 155.157 26.2747 155.157 27C155.157 27.7573 155.317 28.44 155.637 29.048C155.968 29.6453 156.405 30.12 156.949 30.472C157.493 30.824 158.091 31 158.741 31Z" fill="white"></path></svg>